<svg xmlns="http://www.w3.org/2000/svg" xmlns:xlink="http://www.w3.org/1999/xlink" viewBox="0 0 90.43 264.16"><defs><style>.cls-1{fill:#494a4a;}.cls-2{fill:url(#Gradiente_sem_nome_20);}.cls-3{fill:url(#Gradiente_sem_nome_38);}</style><linearGradient id="Gradiente_sem_nome_20" x1="-13.21" y1="171.54" x2="23.49" y2="134.83" gradientUnits="userSpaceOnUse"><stop offset="0" stop-color="#5de05e"/><stop offset="0.29" stop-color="#49ad49"/><stop offset="1" stop-color="#296129"/></linearGradient><linearGradient id="Gradiente_sem_nome_38" x1="8.75" y1="177.88" x2="50.58" y2="177.88" gradientTransform="translate(134.47 31.12) rotate(45)" gradientUnits="userSpaceOnUse"><stop offset="0" stop-color="#94215a"/><stop offset="0.48" stop-color="#96235c"/><stop offset="0.65" stop-color="#9d2862"/><stop offset="0.77" stop-color="#a8316d"/><stop offset="0.87" stop-color="#b93f7c"/><stop offset="0.95" stop-color="#cf5090"/><stop offset="1" stop-color="#e05e9f"/></linearGradient></defs><title>Logo</title><g id="Camada_2" data-name="Camada 2"><g id="Camada_1-2" data-name="Camada 1"><path class="cls-1" d="M67.54,66.41A20.5,20.5,0,0,1,88,86.91V264.16h0c-15.58,0-53.95-24.15-53.95-53.95V185.34l33.11-32.26-33.11-33V66.41Z"/><path class="cls-1" d="M61.07,0q12,0,20.69,5.57t8.67,20.78q0,15-8.67,20.78T61.07,52.89q-12.2,0-20.78-5.75T31.71,26.35q0-15.21,8.58-20.78T61.07,0Z"/></g><g id="Camada_2-2" data-name="Camada 2"><polygon class="cls-2" points="41.83 153.18 36.7 148.05 36.69 148.06 5.13 116.49 0 121.62 31.56 153.19 0 184.75 5.13 189.88 36.69 158.32 36.7 158.33 41.83 153.2 41.82 153.19 41.83 153.18"/><rect class="cls-3" x="3.71" y="174.25" width="51.91" height="7.25" transform="translate(-117.09 73.08) rotate(-45)"/></g></g></svg>